# xmcd
#
# Track frame offsets:
#	164
#	18753
#	31096
#	39582
#	50608
#	62963
#	75299
#	91747
#	100742
#	116420
#	126692
#	139022
#	145183
#	157642
#	169825
#	182142
#	193641
#	199594
#	207810
#	223465
#	231418
#	239375
#	249899
#	258111
#	266311
#
# Disc length: 3830 seconds
#
# Revision: 1
# Processed by: cddbd v1.5.2PL0 Copyright (c) Steve Scherf et al.
# Submitted via: audiograbber 1.83.01
#
DISCID=520ef419
DTITLE=Various Artist - Dubstep Allstars Vol.8
DYEAR=1900
DGENRE=Dubstep
TTITLE0=Distance - Mind Control
TTITLE1=Commodo - Surveillance
TTITLE2=Cyrus - Soul Seeker
TTITLE3=Distance - Devastator
TTITLE4=MC and LX ONE - Hunted
TTITLE5=Kenzo - The Roteks
TTITLE6=Titania - The Others
TTITLE7=3.5 Grams - District
TTITLE8=Blame - Tunnidge vs Distance
TTITLE9=Knowing - Distance
TTITLE10=Looking Back - Cyrus
TTITLE11=Aftershock - Tunnidge
TTITLE12=Troubles - Distance
TTITLE13=Out Of Reach - VIVEK
TTITLE14=Trascendent - Kryptic Minds
TTITLE15=Reboot - Distance
TTITLE16=20-20 - Benton
TTITLE17=Ultimate Moment - Deleted Scenes
TTITLE18=Mean Streak - Distance
TTITLE19=Chemical Compound - Benga
TTITLE20=Drawn - Distance
TTITLE21=Bazurk - Distance
TTITLE22=7 Breaths (Distance Remix) - Tunnidge
TTITLE23=Sun and Moon (Distance Remix) - Above and Beyond ft Richard Bedford
TTITLE24=Puppets (Tunnidge Remix) - Truth
EXTD=
EXTT0=
EXTT1=
EXTT2=
EXTT3=
EXTT4=
EXTT5=
EXTT6=
EXTT7=
EXTT8=
EXTT9=
EXTT10=
EXTT11=
EXTT12=
EXTT13=
EXTT14=
EXTT15=
EXTT16=
EXTT17=
EXTT18=
EXTT19=
EXTT20=
EXTT21=
EXTT22=
EXTT23=
EXTT24=
PLAYORDER=
